<?xml version="1.0" encoding="UTF-8"?>
<svg width="196px" height="47px" viewBox="0 0 196 47" version="1.1" xmlns="http://www.w3.org/2000/svg" xmlns:xlink="http://www.w3.org/1999/xlink">
    <!-- Generator: Sketch 46.2 (44496) - http://www.bohemiancoding.com/sketch -->
    <title>datacue_logo</title>
    <desc>Created with Sketch.</desc>
    <defs></defs>
    <g id="Page-1" stroke="none" stroke-width="1" fill="none" fill-rule="evenodd">
        <g id="datacue_logo">
            <path d="M22.512,34.224 L22.512,25.392 C22.512,25.392 20.08,19.76 14.064,19.76 C8.24,19.76 5.04,23.536 5.04,31.408 C5.04,39.408 8.176,43.12 14.064,43.12 C18.992,43.12 22.512,40.304 22.512,34.224 Z M13.808,16.048 C17.904,16.048 21.04,18.16 22.512,20.208 L22.512,2.48 C22.512,1.328 23.408,0.432 24.56,0.432 C25.712,0.432 26.608,1.328 26.608,2.48 L26.608,34.224 C26.608,42.672 21.36,46.832 14.064,46.832 C5.808,46.832 0.944,41.904 0.944,31.408 C0.944,20.912 5.552,16.048 13.808,16.048 Z M45.616,19.888 C42.224,19.888 40.176,20.912 38.192,23.152 C37.552,23.856 37.104,24.048 36.528,24.048 C35.504,24.048 34.672,23.216 34.672,22.192 C34.672,21.744 34.8,21.424 34.992,21.104 C36.784,18.288 40.24,16.048 45.616,16.048 C53.04,16.048 57.136,20.4 57.136,26.928 L57.136,44.528 C57.136,45.616 56.24,46.512 55.152,46.512 C54.064,46.512 53.168,45.616 53.168,44.528 L53.168,42.224 C51.568,45.232 47.856,46.832 44.016,46.832 C37.232,46.832 32.944,43.568 32.944,37.68 C32.944,32.048 37.232,28.656 44.144,28.656 L53.168,28.656 L53.168,26.928 C53.168,22.576 50.288,19.888 45.616,19.888 Z M44.4,43.12 C48.88,43.12 53.168,40.368 53.168,34.928 L53.168,32.24 L44.144,32.24 C39.984,32.24 37.104,33.968 37.104,37.68 C37.104,41.008 39.408,43.12 44.4,43.12 Z M66.416,16.944 L63.92,16.944 C62.832,16.944 62,17.776 62,18.864 C62,19.952 62.832,20.784 63.92,20.784 L66.416,20.784 L66.416,38.448 C66.416,43.12 69.168,46.512 74.224,46.512 C75.312,46.512 76.208,45.68 76.208,44.592 C76.208,43.504 75.312,42.672 74.224,42.672 C72.048,42.672 70.512,41.2 70.512,38.448 L70.512,20.784 L74.672,20.784 C75.76,20.784 76.592,19.952 76.592,18.864 C76.592,17.776 75.76,16.944 74.672,16.944 L70.512,16.944 L70.512,10.224 C70.512,9.136 69.616,8.176 68.464,8.176 C67.376,8.176 66.416,9.136 66.416,10.224 L66.416,16.944 Z M93.36,19.888 C89.968,19.888 87.92,20.912 85.936,23.152 C85.296,23.856 84.848,24.048 84.272,24.048 C83.248,24.048 82.416,23.216 82.416,22.192 C82.416,21.744 82.544,21.424 82.736,21.104 C84.528,18.288 87.984,16.048 93.36,16.048 C100.784,16.048 104.88,20.4 104.88,26.928 L104.88,44.528 C104.88,45.616 103.984,46.512 102.896,46.512 C101.808,46.512 100.912,45.616 100.912,44.528 L100.912,42.224 C99.312,45.232 95.6,46.832 91.76,46.832 C84.976,46.832 80.688,43.568 80.688,37.68 C80.688,32.048 84.976,28.656 91.888,28.656 L100.912,28.656 L100.912,26.928 C100.912,22.576 98.032,19.888 93.36,19.888 Z M92.144,43.12 C96.624,43.12 100.912,40.368 100.912,34.928 L100.912,32.24 L91.888,32.24 C87.728,32.24 84.848,33.968 84.848,37.68 C84.848,41.008 87.152,43.12 92.144,43.12 Z" id="data" fill="#000000"></path>
            <path d="M110.64,31.408 C110.64,41.904 115.568,46.832 123.824,46.832 C129.008,46.832 132.08,44.528 133.488,43.376 C134.128,42.8 134.32,42.352 134.32,41.776 C134.32,40.752 133.488,39.92 132.464,39.92 C132.016,39.92 131.696,40.048 131.248,40.368 C129.776,41.456 127.536,43.12 123.824,43.12 C117.936,43.12 114.8,39.408 114.8,31.408 C114.8,23.536 117.936,19.76 123.824,19.76 C128.048,19.76 129.776,21.68 130.736,22.768 C131.184,23.28 131.632,23.536 132.272,23.536 C133.296,23.536 134.128,22.768 134.128,21.68 C134.128,21.232 134,20.912 133.68,20.464 C132.656,19.056 129.52,16.048 123.824,16.048 C115.568,16.048 110.64,20.912 110.64,31.408 Z M142.192,16.432 C141.04,16.432 140.144,17.328 140.144,18.48 L140.144,35.184 C140.144,41.264 142.192,46.832 152.048,46.832 C161.968,46.832 163.952,41.264 163.952,35.184 L163.952,18.48 C163.952,17.328 163.056,16.432 161.968,16.432 C160.816,16.432 159.856,17.328 159.856,18.48 L159.856,35.184 C159.856,39.344 158.512,42.928 152.048,42.928 C145.584,42.928 144.24,39.344 144.24,35.184 L144.24,18.48 C144.24,17.328 143.28,16.432 142.192,16.432 Z M169.712,31.408 C169.712,21.552 174.576,16.048 182.896,16.048 C193.136,16.048 195.12,24.176 195.12,28.528 C195.12,30.384 195.12,32.624 192.56,32.624 L173.872,32.624 C173.872,38.96 177.52,43.056 183.536,43.056 C187.248,43.056 189.424,41.648 191.216,40.304 C191.6,40.048 191.856,39.92 192.368,39.92 C193.392,39.92 194.224,40.752 194.224,41.776 C194.224,42.48 193.904,42.864 193.52,43.248 C192.56,44.208 189.232,46.832 183.536,46.832 C175.024,46.832 169.712,42.16 169.712,31.408 Z M191.088,29.04 C191.088,24.432 189.488,19.76 182.896,19.76 C177.328,19.76 174.256,23.344 173.872,29.04 L191.088,29.04 Z" id="cue" fill="#FDB809"></path>
        </g>
    </g>
</svg>