<svg id="Layer_1" data-name="Layer 1" xmlns="http://www.w3.org/2000/svg" viewBox="0 0 225.35 247"><defs><style>.cls-1{fill:#e55f5e;}.cls-2{fill:#f6ada4;}.cls-3{fill:#c0d4cc;}.cls-4{fill:#fff;}.cls-5{fill:#8fb5a6;}</style></defs><title>plants-left</title><path class="cls-1" d="M165,234.85s-57.57-45.51-56.15-118.49S113.59,21.23,101.33,0C101.33,0,212.69,149.47,165,234.85Z"/><path class="cls-2" d="M123.13,50s.39.94,1.08,2.67A19.94,19.94,0,0,0,123.13,50Z"/><path class="cls-2" d="M164,234.56c10.59-16.11-28-168.94-39.83-181.89,1.69,15.08,15.26,52.86,18.17,102.43C143,164.84,159.82,235.73,164,234.56Z"/><path class="cls-3" d="M177.77,243.47s-20.51-58.5,4-102.37c0,0,32.83-50.52,27.93-69.85C224.78,99.92,246.65,180.76,177.77,243.47Z"/><path class="cls-4" d="M177.45,243.25S220.63,111.5,210.51,94.54C220.41,116.39,224,169.59,177.45,243.25Z"/><path class="cls-5" d="M136.63,243.29s22.16-21,11.21-35.48-28.62-11.58-22.43-22.63,3.19-34.91-10.09-39.24-17.92-6.63-20-21.15-7.15-27-28.86-21.08S44.67,95.26,38,87.3,6.19,73.76,1.37,93.36s3.44,28.54,19.47,30.16S35.5,136.4,40.7,146.76s13.9,6.91,22.37,11,7.27,13.28,7.84,21.34.79,20.31,11.68,23.16,13.77,3.53,9.84,12.67S97.36,258.17,136.63,243.29Z"/><path class="cls-4" d="M134.11,238.43S88.05,131,27.52,104.24C27.52,104.24,88.56,115.23,134.11,238.43Z"/></svg>