<svg id="Layer_1" data-name="Layer 1" xmlns="http://www.w3.org/2000/svg" viewBox="0 0 216.62 225"><defs><style>.cls-1{fill:#8fb5a6;}.cls-2{fill:#fff;}.cls-3{fill:#e55f5e;}.cls-4{fill:#c14242;}</style></defs><title>plants-right</title><path class="cls-1" d="M98.9.07s-7.16,3.6,2.44,16.47,15.54,20.77,1.21,27.05-18.74,6.16-17,11.14c1.86,5.21,5,5.28,9.48,2.92s19.2-12.77,22.48-.94-7.45,16.78-17.38,14.36-15.31-1.75-16.61,2.49-4.34,14.12,4.66,13.93S121.79,73,126.85,81.87s-3.75,26.29-13.62,28.4-14-3.28-19.4-4.43c-5.71-1.21-15.33-2.66-19.75,4.23S65.72,126,77,128.75s24.25-3.87,27.37-6.52c2.56-2.18,18.74-13.17,22.94-.54S116.83,149.26,113.7,151s-24.65,8-41.89-4.4c0,0-7.25-4.55-4,1.85S85,160.85,90.42,160.19c4.58-.56,20.19-4.73,20.27,2.51S101.52,186,91.61,185.43s-22.6-9-29.89-16.29c0,0-5.45-4.78-2.17,6.16,3.75,12.51,29.37,11.36,29.88,16.29s-11.94,17.32-19.17,14.58-13.21-13.35-14.55-12.73.09,8.15,9.61,13.78c0,0,8.06,4.47-1.27,7s-25.1,8.5-45.58-12.11S3.83,181.2,11,180.32,35.3,179.16,39.75,175c0,0,4-4.56-10.38-2.81s-20.61,8-25.6,4.49-7.15-34.93,7.32-28.54,16.32,10.7,24,9.31,23.3-8.29,14.3-9-26,5-36.05-4.66S5,126.66,8.09,122.21s13.49-.74,17.2,8.77,19.48,11.67,24.38,7.9c2.72-2.08,10.76-8.51,3-15.32-5.45-4.77-7.64.48-16.2-.74s-25.72-6.37-23.61-18,7.8-25.43,15.51-20.48,9.6,12.88,15.54,20.76,15.86,9.4,18.06,5,3-13.51-8.32-18.93S32.42,87.05,29.16,77s1.44-30.09,11-23.55S47,67.59,57.48,74.93s18.46,1.82,14.79-5-7.78-11.29-15-10.41c-5.86.72-16.39-16.13-6.12-23.27S66.61,48,73.86,52.53s5.33-6.09,1.69-9.27S61.41,26.41,69.44,20.89s12.53-6.06,17-9.32S95.73-.9,98.9.07Z"/><path class="cls-2" d="M47.81,210.72S73.28,79.8,80.67,57.59C80.67,57.59,35.9,192.23,47.81,210.72Z"/><path class="cls-3" d="M85.38,224.25s6.7-3,23.78-7.14,36.67-22.25,23.07-24.39-6.11-5.59-2.58-5,37.43,1.82,17.26-8.11c0,0-8.64-3.77-6.89-5.18s6.65,2.37,14.06,4.34,21.44-9.33,12.37-11.9-12.73-4.55-8.77-5.17,33.47,2.44,36.27-5.4-11.35-10.18-13.56-11-2.37-5.6,8.37-2.45,34.08-15,14.74-18.53-7.69-8.19-2.06-8.22,21.88-22.78,12.13-26.95-19.1-.7-24.33,7S184.5,109.39,182.5,108s5.63-12.27.65-14-13.47-.73-18.58,8.32-8.72,26.13-12.28,22.14,4.86-11.87-1.23-14-13.77,1.87-17.94,31c0,0-.4,4.61-2,2s1.67-11.64-2.33-14.43S115.5,133,114.75,149.06s-3.29,14.47-3.42,13.06,1.55-13.05-6.82-10.6-7.79,18.3-4,25.1-6.42-3-7.32-4-7.25-9.4-9.78,4.66-9.06,37.57-6.91,43.78S85.38,224.25,85.38,224.25Z"/><path class="cls-4" d="M149.94,145.08c1.9.91,6.7,3.13,11.46,4.9a40.69,40.69,0,0,0,17.3,3.58S162,149.81,154.14,146a11,11,0,0,1-2.92-2.24c5.85-5.83,12.36-11.88,18.74-17.59,4.27,2.32,19,9.29,31.81,3,0,0-22.14,1.39-31.76-3,16.91-15.14,32.82-27.9,32.82-27.9-11.08,5-25.43,16.65-40.32,30.79,2.51-6.5,10.24-25.22,10.24-25.22-6.69,6.85-9.81,21.36-10.6,25.57-6.46,6.14-13,12.75-19.46,19.5A74,74,0,0,1,145.46,126s-10.2,19.27-4,24.16c-6.43,6.77-12.73,13.65-18.67,20.3-.27-7.66-1.85-21.26-1.85-21.26-2.91,8.14-.41,17.84,1,22.18-3.92,4.4-7.68,8.69-11.21,12.77-1.28-7.63-4.12-19.54-4.12-19.54-1.82,7.77,1.13,16.23,3.12,20.7-7.42,8.6-13.79,16.22-18.48,21.92l-.53-1.1a12.67,12.67,0,0,0,.36,1.31c-5.31,6.45-8.43,10.38-8.43,10.38,1.53-1,9.52-8.43,19.24-18.28,8.6,2.67,25.19-1.21,25.19-1.21a151.75,151.75,0,0,0-24.5.51c4.61-4.68,9.56-9.87,14.39-15.18,6.52.52,21,1.15,25.74-2.86,0,0-16.07,1.09-25,2,5.1-5.65,10-11.39,14.2-16.77,5.68,2.08,23,8.1,26.61,5.41,0,0-17.93-6.41-25.8-6.46.85-1.1,1.66-2.19,2.43-3.26A154.68,154.68,0,0,1,149.94,145.08Z"/><path class="cls-4" d="M90.74,206.16c-1.54-6.55-2.39-21.65-2.39-21.65C84.62,191.13,88.42,201.21,90.74,206.16Z"/></svg>